<?xml version="1.0" encoding="UTF-8"?>
<svg xmlns="http://www.w3.org/2000/svg" xmlns:xlink="http://www.w3.org/1999/xlink" width="6px" height="6px" viewBox="0 0 6 6" version="1.1">
<g id="surface1">
<path style="stroke:none;stroke-width:5px;fill-rule:nonzero;fill:rgb(82,89,113);fill-opacity:1;" d="M 3.585938 0.0898438 C 3.179688 0.125 2.828125 0.238281 2.515625 0.441406 C 2.003906 0.773438 1.65625 1.292969 1.550781 1.878906 C 1.523438 2.023438 1.519531 2.09375 1.519531 2.261719 C 1.519531 2.4375 1.527344 2.515625 1.5625 2.683594 C 1.59375 2.84375 1.65625 3.03125 1.734375 3.203125 L 1.773438 3.289062 L 0.964844 4.082031 C 0.09375 4.933594 0.121094 4.902344 0.0703125 5.03125 C -0.03125 5.277344 0.03125 5.550781 0.226562 5.734375 C 0.339844 5.84375 0.480469 5.902344 0.644531 5.914062 C 0.789062 5.921875 0.945312 5.878906 1.0625 5.796875 C 1.078125 5.785156 1.457031 5.417969 1.902344 4.988281 L 2.707031 4.199219 L 2.796875 4.242188 C 2.996094 4.335938 3.148438 4.386719 3.359375 4.421875 C 4.101562 4.542969 4.847656 4.3125 5.359375 3.792969 C 5.703125 3.441406 5.914062 3.003906 5.972656 2.515625 C 5.984375 2.402344 5.984375 2.15625 5.96875 2.039062 C 5.894531 1.433594 5.570312 0.886719 5.078125 0.523438 C 4.765625 0.292969 4.402344 0.148438 4.019531 0.101562 C 3.9375 0.0898438 3.65625 0.0820312 3.585938 0.0898438 Z M 3.84375 0.46875 C 4.148438 0.484375 4.445312 0.574219 4.707031 0.730469 C 4.886719 0.835938 5.097656 1.027344 5.222656 1.1875 C 5.445312 1.476562 5.570312 1.8125 5.59375 2.167969 C 5.613281 2.484375 5.550781 2.785156 5.40625 3.070312 C 5.125 3.632812 4.566406 4.011719 3.929688 4.078125 C 3.808594 4.089844 3.554688 4.082031 3.445312 4.066406 C 3.046875 3.996094 2.714844 3.828125 2.433594 3.554688 C 2.15625 3.28125 1.984375 2.957031 1.914062 2.566406 C 1.894531 2.460938 1.886719 2.210938 1.898438 2.09375 C 1.9375 1.757812 2.0625 1.445312 2.277344 1.167969 C 2.339844 1.089844 2.5 0.929688 2.582031 0.867188 C 2.777344 0.710938 3.042969 0.582031 3.292969 0.515625 C 3.40625 0.488281 3.53125 0.472656 3.703125 0.460938 C 3.710938 0.460938 3.773438 0.464844 3.84375 0.46875 Z M 2.042969 3.683594 C 2.121094 3.769531 2.261719 3.90625 2.34375 3.96875 L 2.40625 4.019531 L 1.640625 4.765625 C 0.917969 5.472656 0.871094 5.515625 0.824219 5.539062 C 0.621094 5.640625 0.390625 5.519531 0.355469 5.300781 C 0.347656 5.253906 0.347656 5.238281 0.359375 5.199219 C 0.386719 5.09375 0.347656 5.136719 1.179688 4.320312 L 1.945312 3.566406 L 1.964844 3.589844 C 1.972656 3.601562 2.011719 3.644531 2.042969 3.683594 Z M 2.042969 3.683594 "/>
<path style="stroke:none;fill-rule:nonzero;fill:rgb(82,89,113);fill-opacity:1;" d="M 3.5625 1.011719 C 3.070312 1.078125 2.660156 1.414062 2.503906 1.875 C 2.449219 2.035156 2.417969 2.265625 2.445312 2.316406 C 2.457031 2.339844 2.496094 2.359375 2.523438 2.359375 C 2.550781 2.359375 2.585938 2.34375 2.59375 2.320312 C 2.601562 2.308594 2.605469 2.269531 2.609375 2.226562 C 2.628906 1.945312 2.734375 1.703125 2.933594 1.511719 C 3.019531 1.425781 3.085938 1.375 3.183594 1.320312 C 3.332031 1.234375 3.542969 1.179688 3.710938 1.179688 C 3.777344 1.179688 3.804688 1.15625 3.816406 1.09375 C 3.824219 1.0625 3.808594 1.027344 3.785156 1.011719 C 3.765625 0.996094 3.664062 0.996094 3.5625 1.011719 Z M 3.5625 1.011719 "/>
</g>
</svg>
