<?xml version="1.0" encoding="UTF-8"?>
<svg xmlns="http://www.w3.org/2000/svg" xmlns:xlink="http://www.w3.org/1999/xlink" width="10px" height="10px" viewBox="0 0 10 10" version="1.1">
<g id="surface1">
<path style=" stroke:none;fill-rule:nonzero;fill:rgb(82,89,113);fill-opacity:1;" d="M 5.976562 0.148438 C 5.296875 0.207031 4.714844 0.398438 4.191406 0.738281 C 3.339844 1.289062 2.757812 2.152344 2.585938 3.128906 C 2.542969 3.371094 2.53125 3.492188 2.53125 3.769531 C 2.53125 4.058594 2.546875 4.195312 2.601562 4.476562 C 2.65625 4.738281 2.757812 5.050781 2.886719 5.335938 L 2.957031 5.484375 L 1.609375 6.800781 C 0.15625 8.226562 0.203125 8.171875 0.117188 8.386719 C -0.0507812 8.796875 0.0507812 9.25 0.378906 9.554688 C 0.570312 9.738281 0.804688 9.839844 1.074219 9.855469 C 1.316406 9.871094 1.574219 9.796875 1.769531 9.664062 C 1.800781 9.640625 2.429688 9.03125 3.167969 8.3125 L 4.511719 7 L 4.664062 7.074219 C 4.996094 7.230469 5.25 7.308594 5.601562 7.367188 C 6.835938 7.574219 8.078125 7.183594 8.929688 6.320312 C 9.507812 5.738281 9.859375 5.007812 9.953125 4.191406 C 9.976562 4 9.972656 3.589844 9.949219 3.398438 C 9.820312 2.386719 9.285156 1.480469 8.464844 0.875 C 7.941406 0.488281 7.339844 0.25 6.703125 0.167969 C 6.5625 0.148438 6.089844 0.136719 5.976562 0.148438 Z M 6.40625 0.78125 C 6.914062 0.804688 7.410156 0.957031 7.84375 1.214844 C 8.144531 1.394531 8.5 1.710938 8.703125 1.980469 C 9.074219 2.464844 9.285156 3.019531 9.320312 3.613281 C 9.355469 4.136719 9.25 4.640625 9.011719 5.117188 C 8.542969 6.054688 7.613281 6.6875 6.550781 6.796875 C 6.351562 6.816406 5.925781 6.804688 5.742188 6.773438 C 5.078125 6.660156 4.523438 6.378906 4.058594 5.925781 C 3.59375 5.46875 3.308594 4.929688 3.1875 4.277344 C 3.15625 4.101562 3.144531 3.683594 3.164062 3.488281 C 3.226562 2.925781 3.4375 2.410156 3.796875 1.949219 C 3.898438 1.816406 4.164062 1.550781 4.300781 1.441406 C 4.632812 1.183594 5.074219 0.96875 5.492188 0.863281 C 5.675781 0.816406 5.886719 0.789062 6.171875 0.769531 C 6.1875 0.769531 6.289062 0.773438 6.40625 0.78125 Z M 3.40625 6.140625 C 3.535156 6.285156 3.769531 6.507812 3.910156 6.617188 L 4.011719 6.699219 L 2.734375 7.945312 C 1.53125 9.121094 1.453125 9.195312 1.375 9.234375 C 1.035156 9.398438 0.652344 9.199219 0.59375 8.832031 C 0.582031 8.753906 0.582031 8.730469 0.597656 8.664062 C 0.644531 8.488281 0.578125 8.558594 1.964844 7.199219 L 3.242188 5.945312 L 3.273438 5.984375 C 3.289062 6.003906 3.351562 6.074219 3.40625 6.140625 Z M 3.40625 6.140625 "/>
<path style=" stroke:none;fill-rule:nonzero;fill:rgb(82,89,113);fill-opacity:1;" d="M 5.941406 1.683594 C 5.121094 1.800781 4.433594 2.359375 4.171875 3.121094 C 4.082031 3.390625 4.03125 3.777344 4.078125 3.863281 C 4.097656 3.898438 4.160156 3.933594 4.207031 3.933594 C 4.253906 3.933594 4.308594 3.902344 4.324219 3.867188 C 4.335938 3.847656 4.34375 3.78125 4.351562 3.710938 C 4.378906 3.242188 4.558594 2.839844 4.886719 2.519531 C 5.035156 2.375 5.144531 2.289062 5.304688 2.199219 C 5.554688 2.058594 5.902344 1.96875 6.1875 1.96875 C 6.292969 1.96875 6.34375 1.925781 6.363281 1.824219 C 6.371094 1.773438 6.347656 1.710938 6.308594 1.683594 C 6.273438 1.660156 6.105469 1.660156 5.941406 1.683594 Z M 5.941406 1.683594 "/>
</g>
</svg>
