<?xml version="1.0" standalone="no"?>
<!DOCTYPE svg PUBLIC "-//W3C//DTD SVG 20010904//EN"
 "http://www.w3.org/TR/2001/REC-SVG-20010904/DTD/svg10.dtd">
<svg version="1.0" xmlns="http://www.w3.org/2000/svg"
 width="840.000000pt" height="881.000000pt" viewBox="0 0 840.000000 881.000000"
 preserveAspectRatio="xMidYMid meet">

<g transform="translate(0.000000,881.000000) scale(0.100000,-0.100000)"
fill="#000000" stroke="none">
<path style="fill-rule:nonzero;fill:rgb(82,89,113);fill-opacity:1;stroke-width=5px;" d="M5217 8389 c-152 -15 -384 -68 -556 -125 -907 -301 -1598 -1075
-1791 -2006 -33 -161 -50 -342 -50 -543 0 -625 173 -1139 552 -1648 77 -102
89 -123 80 -141 -17 -37 -220 -251 -551 -581 l-320 -319 -113 110 c-147 143
-197 166 -284 129 -43 -18 -247 -215 -933 -904 -541 -544 -857 -870 -944 -976
-34 -41 -62 -88 -77 -132 -49 -134 -27 -330 49 -443 37 -55 174 -200 256 -270
114 -98 226 -136 380 -127 145 8 162 18 352 195 374 350 1485 1454 1652 1642
115 129 151 189 151 250 0 43 -2 46 -120 160 -66 63 -120 120 -120 126 0 13
875 884 888 884 4 0 78 -49 163 -110 182 -129 267 -181 426 -259 623 -308
1373 -366 2023 -156 987 319 1697 1172 1847 2220 22 153 23 550 1 700 -86 592
-355 1133 -767 1542 -409 407 -905 661 -1491 763 -100 17 -175 23 -370 25
-135 2 -285 0 -333 -6z m605 -748 c293 -51 531 -146 774 -310 584 -393 922
-1082 864 -1760 -41 -491 -243 -920 -591 -1257 -179 -172 -329 -277 -542 -379
-295 -141 -520 -184 -892 -171 -356 12 -482 43 -817 205 -160 77 -263 145
-391 259 -249 220 -380 403 -523 727 -123 277 -149 434 -141 830 5 262 16 336
78 525 144 441 469 842 885 1090 234 139 513 230 797 260 123 13 366 4 499
-19z"/>
<path style="fill-rule:nonzero;fill:rgb(82,89,113);fill-opacity:1;stroke-width=5px;" d="M5291 7349 c-462 -57 -896 -327 -1156 -719 -111 -166 -204 -381 -246
-569 -21 -95 -36 -307 -25 -364 8 -43 44 -72 79 -63 35 8 55 62 72 198 30 229
70 369 151 531 149 298 373 527 662 676 178 91 356 140 580 159 126 11 155 28
160 89 2 25 -2 44 -11 51 -19 16 -176 23 -266 11z"/>
</g>
</svg>
