<?xml version="1.0" encoding="UTF-8"?>
<svg xmlns="http://www.w3.org/2000/svg" xmlns:xlink="http://www.w3.org/1999/xlink" width="19px" height="20px" viewBox="0 0 19 19" version="1.1">
<g id="surface1">
<path style=" stroke:none;fill-rule:nonzero;fill:rgb(32.156863%,34.901961%,44.313725%);fill-opacity:1;stroke-width:5px;" d="M 11.800781 0.90625 C 11.457031 0.941406 10.933594 1.054688 10.542969 1.179688 C 8.492188 1.828125 6.929688 3.496094 6.492188 5.503906 C 6.417969 5.851562 6.378906 6.242188 6.378906 6.675781 C 6.378906 8.023438 6.769531 9.132812 7.628906 10.230469 C 7.800781 10.453125 7.828125 10.496094 7.808594 10.535156 C 7.769531 10.617188 7.308594 11.078125 6.5625 11.789062 L 5.839844 12.476562 L 5.582031 12.238281 C 5.25 11.929688 5.136719 11.882812 4.941406 11.960938 C 4.84375 12 4.382812 12.425781 2.828125 13.910156 C 1.605469 15.085938 0.890625 15.789062 0.695312 16.015625 C 0.617188 16.105469 0.554688 16.207031 0.519531 16.300781 C 0.410156 16.589844 0.460938 17.011719 0.632812 17.257812 C 0.714844 17.375 1.023438 17.6875 1.210938 17.839844 C 1.46875 18.050781 1.722656 18.132812 2.070312 18.113281 C 2.398438 18.097656 2.4375 18.074219 2.867188 17.691406 C 3.710938 16.9375 6.226562 14.554688 6.601562 14.152344 C 6.863281 13.871094 6.945312 13.742188 6.945312 13.613281 C 6.945312 13.519531 6.941406 13.511719 6.671875 13.265625 C 6.523438 13.128906 6.402344 13.007812 6.402344 12.996094 C 6.402344 12.964844 8.378906 11.085938 8.410156 11.085938 C 8.417969 11.085938 8.585938 11.191406 8.777344 11.324219 C 9.191406 11.601562 9.382812 11.714844 9.742188 11.882812 C 11.152344 12.546875 12.847656 12.671875 14.316406 12.21875 C 16.550781 11.53125 18.15625 9.691406 18.496094 7.429688 C 18.546875 7.101562 18.546875 6.246094 18.496094 5.921875 C 18.304688 4.644531 17.695312 3.476562 16.761719 2.59375 C 15.835938 1.71875 14.714844 1.167969 13.390625 0.949219 C 13.164062 0.914062 12.996094 0.898438 12.554688 0.894531 C 12.25 0.890625 11.910156 0.894531 11.800781 0.90625 Z M 13.167969 2.523438 C 13.832031 2.632812 14.371094 2.835938 14.917969 3.191406 C 16.242188 4.039062 17.003906 5.523438 16.875 6.988281 C 16.78125 8.046875 16.324219 8.972656 15.535156 9.699219 C 15.132812 10.070312 14.792969 10.296875 14.3125 10.515625 C 13.644531 10.820312 13.136719 10.914062 12.292969 10.886719 C 11.488281 10.859375 11.203125 10.792969 10.445312 10.441406 C 10.082031 10.277344 9.851562 10.128906 9.5625 9.882812 C 8.996094 9.410156 8.703125 9.015625 8.378906 8.316406 C 8.101562 7.71875 8.042969 7.378906 8.058594 6.523438 C 8.070312 5.960938 8.09375 5.800781 8.234375 5.394531 C 8.5625 4.441406 9.296875 3.578125 10.238281 3.042969 C 10.765625 2.742188 11.398438 2.546875 12.039062 2.480469 C 12.316406 2.453125 12.867188 2.472656 13.167969 2.523438 Z M 13.167969 2.523438 "/>
<path style=" stroke:none;fill-rule:nonzero;fill:rgb(32.156863%,34.901961%,44.313725%);fill-opacity:1;stroke-width:5px;" d="M 11.96875 3.152344 C 10.921875 3.273438 9.941406 3.855469 9.351562 4.703125 C 9.101562 5.0625 8.890625 5.523438 8.796875 5.929688 C 8.75 6.136719 8.714844 6.59375 8.738281 6.714844 C 8.757812 6.808594 8.839844 6.871094 8.917969 6.851562 C 8.996094 6.832031 9.042969 6.71875 9.082031 6.425781 C 9.148438 5.929688 9.238281 5.628906 9.421875 5.277344 C 9.761719 4.636719 10.265625 4.140625 10.921875 3.820312 C 11.324219 3.625 11.726562 3.519531 12.230469 3.476562 C 12.515625 3.453125 12.582031 3.417969 12.59375 3.285156 C 12.597656 3.230469 12.589844 3.191406 12.570312 3.175781 C 12.527344 3.140625 12.171875 3.125 11.96875 3.152344 Z M 11.96875 3.152344 "/>
</g>
</svg>
