<?xml version="1.0" standalone="no"?>
<!DOCTYPE svg PUBLIC "-//W3C//DTD SVG 20010904//EN"
 "http://www.w3.org/TR/2001/REC-SVG-20010904/DTD/svg10.dtd">
<svg version="1.0" xmlns="http://www.w3.org/2000/svg"
 width="2048.000000pt" height="2048.000000pt" viewBox="0 0 2048.000000 2048.000000"
 preserveAspectRatio="xMidYMid meet">

<g transform="translate(0.000000,2048.000000) scale(0.100000,-0.100000)"
fill="#000000" stroke="none">
<path style="fill-rule:nonzero;fill:rgb(82,89,113);fill-opacity:1;" d="M7830 17914 c-151 -10 -327 -26 -430 -40 -1828 -232 -3431 -1371
-4255 -3024 -319 -638 -495 -1263 -567 -2015 -19 -200 -16 -771 5 -980 32
-304 76 -563 143 -830 361 -1444 1297 -2689 2589 -3444 737 -431 1547 -678
2424 -742 318 -23 848 -2 1176 47 791 117 1557 409 2227 850 167 109 350 244
485 356 45 37 85 68 90 68 4 0 59 -54 121 -119 l112 -119 0 -334 0 -333 2130
-2130 2130 -2130 637 638 638 637 -2130 2130 -2130 2130 -334 0 -333 0 -117
111 c-64 61 -117 115 -119 119 -2 5 35 55 81 112 663 815 1078 1782 1207 2813
53 431 55 903 4 1340 -170 1467 -930 2812 -2110 3733 -137 107 -473 333 -619
417 -696 399 -1412 631 -2210 715 -181 20 -698 34 -845 24z m600 -1714 c638
-57 1227 -257 1760 -599 326 -208 664 -513 914 -824 736 -918 1009 -2127 741
-3283 -109 -470 -322 -944 -599 -1334 -238 -336 -566 -668 -894 -904 -843
-607 -1895 -844 -2931 -661 -1108 197 -2089 890 -2649 1871 -275 482 -441
1017 -492 1584 -13 149 -13 503 1 650 85 936 472 1758 1135 2412 634 625 1449
1002 2349 1087 131 12 531 13 665 1z"/>
</g>
</svg>
